<svg width="18" height="19" viewBox="0 0 18 19" fill="none" xmlns="http://www.w3.org/2000/svg">
<g clip-path="url(#clip0_163_2870)">
<path d="M18 1.26658V12.9104C18 13.3338 17.6568 13.677 17.2334 13.677C16.8101 13.677 16.4668 13.3338 16.4668 12.9104V3.11742L1.30869 18.2755C1.15896 18.4252 0.962824 18.5 0.766617 18.5C0.57041 18.5 0.374273 18.4252 0.224543 18.2755C-0.0748476 17.9761 -0.0748476 17.4907 0.224543 17.1913L15.3827 2.03316H5.5896C5.16625 2.03316 4.82302 1.68993 4.82302 1.26658C4.82302 0.84323 5.16625 0.5 5.5896 0.5H17.2334C17.6568 0.499965 18 0.84323 18 1.26658Z" fill="#2F2F3D"/>
</g>
<defs>
<clipPath id="clip0_163_2870">
<rect width="18" height="18" fill="white" transform="translate(0 0.5)"/>
</clipPath>
</defs>
</svg>
