<svg width="38" height="39" viewBox="0 0 38 39" fill="none" xmlns="http://www.w3.org/2000/svg">
<rect width="38" height="38.7187" rx="19" transform="matrix(-1 0 0 1 38 0)" fill="#2F2F3D"/>
<path d="M10.2062 18.8617C10.2064 18.8615 10.2066 18.8612 10.2069 18.861L13.8808 15.2047C14.1561 14.9308 14.6012 14.9319 14.8752 15.2071C15.1492 15.4824 15.1481 15.9276 14.8729 16.2015L12.4062 18.6562H27.2969C27.6852 18.6562 28 18.971 28 19.3594C28 19.7477 27.6852 20.0625 27.2969 20.0625H12.4062L14.8728 22.5172C15.1481 22.7912 15.1491 23.2364 14.8752 23.5116C14.6012 23.7869 14.156 23.7879 13.8808 23.514L10.2068 19.8577C10.2066 19.8575 10.2064 19.8573 10.2062 19.8571C9.93081 19.5822 9.93169 19.1356 10.2062 18.8617Z" fill="white"/>
</svg>
