<svg width="38" height="39" viewBox="0 0 38 39" fill="none" xmlns="http://www.w3.org/2000/svg">
<rect width="38" height="38.7187" rx="19" fill="white"/>
<path d="M27.7938 18.8617C27.7936 18.8615 27.7934 18.8612 27.7931 18.861L24.1192 15.2047C23.8439 14.9308 23.3988 14.9319 23.1248 15.2071C22.8508 15.4824 22.8519 15.9276 23.1271 16.2015L25.5938 18.6562H10.7031C10.3148 18.6562 10 18.971 10 19.3594C10 19.7477 10.3148 20.0625 10.7031 20.0625H25.5938L23.1272 22.5172C22.8519 22.7912 22.8509 23.2364 23.1248 23.5116C23.3988 23.7869 23.844 23.7879 24.1192 23.514L27.7932 19.8577C27.7934 19.8575 27.7936 19.8573 27.7938 19.8571C28.0692 19.5822 28.0683 19.1356 27.7938 18.8617Z" fill="#2F2F3D"/>
</svg>
