<svg width="60" height="60" viewBox="0 0 60 60" fill="none" xmlns="http://www.w3.org/2000/svg">
<g clip-path="url(#clip0_163_3034)">
<rect width="60" height="60" rx="30" fill="#3D3D49"/>
<g clip-path="url(#clip1_163_3034)">
<path d="M29.447 20.2291C29.4468 20.2294 29.4465 20.2296 29.4462 20.2298L25.3837 24.312C25.0794 24.6179 25.0805 25.1125 25.3864 25.4169C25.6922 25.7213 26.1869 25.7201 26.4912 25.4143L29.2187 22.6735L29.2187 39.2187C29.2187 39.6502 29.5685 40 30 40C30.4315 40 30.7812 39.6502 30.7812 39.2187L30.7812 22.6736L33.5087 25.4143C33.8131 25.7201 34.3078 25.7212 34.6136 25.4169C34.9195 25.1125 34.9205 24.6178 34.6162 24.312L30.5537 20.2298C30.5535 20.2296 30.5532 20.2294 30.553 20.2291C30.2476 19.9231 29.7514 19.9241 29.447 20.2291Z" fill="white"/>
</g>
</g>
<rect x="0.7" y="0.7" width="58.6" height="58.6" rx="29.3" stroke="#86869B" stroke-opacity="0.47" stroke-width="1.4"/>
<defs>
<clipPath id="clip0_163_3034">
<rect width="60" height="60" rx="30" fill="white"/>
</clipPath>
<clipPath id="clip1_163_3034">
<rect width="20" height="20" fill="white" transform="translate(20 40) rotate(-90)"/>
</clipPath>
</defs>
</svg>
