<svg width="85" height="57" viewBox="0 0 85 57" fill="none" xmlns="http://www.w3.org/2000/svg">
<g id="&#208;&#155;&#208;&#190;&#208;&#179;&#208;&#190;&#209;&#130;&#208;&#184;&#208;&#191; 1" clip-path="url(#clip0_163_3044)">
<path id="Vector" d="M7.44518 44.9963C8.71719 45.3018 9.84359 46.028 10.6354 47.0529C11.4495 48.0662 11.8875 49.3221 11.877 50.6132C11.8913 51.3783 11.7455 52.1382 11.4487 52.8457C11.152 53.5533 10.7105 54.1934 10.1517 54.7264C9.61014 55.2772 8.95917 55.7127 8.23919 56.006C7.51921 56.2992 6.74557 56.4439 5.96632 56.4311C5.18706 56.4439 4.41343 56.2992 3.69344 56.006C2.97346 55.7127 2.32249 55.2772 1.78093 54.7264C1.22214 54.1934 0.780676 53.5533 0.483899 52.8457C0.187122 52.1382 0.0413769 51.3783 0.0556421 50.6132C0.0451395 49.3221 0.483119 48.0662 1.29727 47.0529C2.08905 46.028 3.21544 45.3018 4.48746 44.9963L4.56653 45.3208C3.37272 45.6152 2.31649 46.3002 1.57169 47.2632C0.807096 48.217 0.396923 49.399 0.409079 50.6132C0.39752 51.3298 0.535086 52.0413 0.81338 52.7038C1.09167 53.3663 1.50481 53.9659 2.02742 54.4659C2.53693 54.9816 3.14831 55.3895 3.82407 55.6646C4.49982 55.9397 5.22566 56.0761 5.95701 56.0655C6.68835 56.0761 7.41419 55.9397 8.08995 55.6646C8.7657 55.3895 9.37714 54.9816 9.88665 54.4659C10.4093 53.9659 10.8223 53.3663 11.1006 52.7038C11.3789 52.0413 11.5166 51.3298 11.505 50.6132C11.5171 49.399 11.107 48.217 10.3424 47.2632C9.59758 46.3002 8.54129 45.6152 7.34748 45.3208L7.44518 44.9963Z" fill="white"/>
<path id="Vector_2" d="M11.3746 36.1987H11.7188V42.9947H0.213623V42.6519H11.3746V36.1987Z" fill="white"/>
<path id="Vector_3" d="M0.213623 32.835H11.7188V33.1823H0.213623V32.835Z" fill="white"/>
<path id="Vector_4" d="M11.1886 21.5145H0.213623V21.1763H11.7188V21.5419L0.753088 29.814H11.7188V30.1522H0.213623V29.7912L11.1886 21.5145Z" fill="white"/>
<path id="Vector_5" d="M0.213623 17.9041H11.7188V18.2514H0.213623V17.9041Z" fill="white"/>
<path id="Vector_6" d="M7.44521 4.02881C8.71774 4.33584 9.84411 5.06359 10.6354 6.08999C11.4495 7.10149 11.8876 8.35599 11.877 9.64564C11.8916 10.4108 11.746 11.1708 11.4492 11.8784C11.1524 12.5859 10.7107 13.226 10.1517 13.7589C9.61041 14.3103 8.95959 14.7465 8.23962 15.0405C7.51966 15.3346 6.74591 15.4801 5.96635 15.4681C5.1868 15.4801 4.41304 15.3346 3.69308 15.0405C2.97312 14.7465 2.3223 14.3103 1.78097 13.7589C1.22196 13.226 0.780332 12.5859 0.483538 11.8784C0.186745 11.1708 0.0411363 10.4108 0.0556787 9.64564C0.0451176 8.35599 0.483162 7.10149 1.29731 6.08999C2.0886 5.06359 3.21497 4.33584 4.48749 4.02881L4.56657 4.35787C3.37311 4.65032 2.31676 5.33383 1.57172 6.29565C0.807797 7.24988 0.397706 8.43153 0.409116 9.64564C0.396732 10.3624 0.533939 11.0741 0.812281 11.7367C1.09062 12.3994 1.50419 12.9989 2.02746 13.4984C2.53607 14.0156 3.14719 14.4248 3.82308 14.7007C4.49897 14.9766 5.22524 15.1134 5.95704 15.1025C6.68884 15.1134 7.41512 14.9766 8.09101 14.7007C8.7669 14.4248 9.37808 14.0156 9.88669 13.4984C10.41 12.9989 10.8235 12.3994 11.1019 11.7367C11.3802 11.0741 11.5174 10.3624 11.505 9.64564C11.5164 8.43153 11.1063 7.24988 10.3424 6.29565C9.59739 5.33383 8.54098 4.65032 7.34752 4.35787L7.44521 4.02881Z" fill="white"/>
<path id="Vector_7" d="M12.4256 34.4346V36.1393L32.3713 55.6589L33.3432 56.614H35.7428L14.8159 36.1393H31.4272C33.8067 36.1752 36.1691 35.7396 38.3735 34.8586C40.5779 33.9776 42.5791 32.6692 44.2578 31.0115C45.991 29.4224 47.3661 27.4939 48.2945 25.3504C49.2228 23.2069 49.6837 20.896 49.6476 18.5667C49.6867 16.231 49.2273 13.9131 48.299 11.7625C47.3706 9.61193 45.994 7.67644 44.2578 6.08083C42.5731 4.43393 40.5699 3.13534 38.3662 2.2617C36.1625 1.38806 33.8031 0.957066 31.4272 0.994148H0.143799V2.63487H31.4272C33.5816 2.60054 35.7211 2.99229 37.7183 3.78684C39.7156 4.58139 41.5298 5.7625 43.0533 7.25995C44.6218 8.70733 45.8655 10.4607 46.7048 12.4077C47.544 14.3547 47.9603 16.4525 47.9269 18.5667C47.9628 20.6753 47.5475 22.7677 46.7079 24.7084C45.8683 26.6491 44.6232 28.3948 43.0533 29.8324C39.798 32.9173 35.9196 34.4575 28.4138 34.4575H12.4116" fill="white"/>
<path id="Vector_8" d="M65.901 36.2855V34.6631H84.5399V35.5771C84.54 35.6496 84.5307 35.7218 84.512 35.7919C82.9839 41.7626 79.4228 47.0395 74.4205 50.7458C69.489 54.5952 63.3627 56.665 57.0652 56.6094C53.3316 56.6703 49.6251 55.9783 46.1745 54.5759C42.7238 53.1735 39.6025 51.0907 37.0032 48.4561C34.3283 45.8972 32.213 42.8289 30.7864 39.4388C29.3599 36.0487 28.6523 32.4082 28.7069 28.7401C28.6516 25.0712 29.3589 21.4298 30.7855 18.0389C32.212 14.648 34.3278 11.5788 37.0032 9.01944C39.6031 6.3857 42.7246 4.30346 46.1751 2.90116C49.6255 1.49887 53.3318 0.80628 57.0652 0.866121C63.3636 0.809959 69.4906 2.8816 74.4205 6.73432C79.2087 10.2776 82.6806 15.268 84.3027 20.9386H82.5262C80.9594 15.7872 77.7595 11.2622 73.3928 8.02312C68.7424 4.41521 62.9757 2.4799 57.0512 2.53883C53.5404 2.48565 50.0556 3.13715 46.8099 4.45343C43.5642 5.76971 40.626 7.72308 38.1751 10.194C35.6598 12.6028 33.6716 15.4911 32.3322 18.6817C30.9927 21.8723 30.3304 25.2981 30.3857 28.7492C30.3302 32.1996 30.9925 35.6248 32.3319 38.8147C33.6714 42.0046 35.6598 44.892 38.1751 47.2998C40.6253 49.7716 43.5634 51.7255 46.8093 53.0419C50.0551 54.3582 53.5403 55.0092 57.0512 54.955C62.7909 55.0061 68.3871 53.1922 72.9696 49.7952C77.606 46.4756 80.9863 41.7338 82.5774 36.3175L65.901 36.2855Z" fill="white"/>
</g>
<defs>
<clipPath id="clip0_163_3044">
<rect width="85" height="57" fill="white"/>
</clipPath>
</defs>
</svg>
