<svg width="30" height="30" viewBox="0 0 30 30" fill="none" xmlns="http://www.w3.org/2000/svg">
<g id="support 1">
<g id="Group">
<g id="Group_2">
<path id="Vector" d="M25.8421 12.401H25.7678V10.5817C25.7678 4.73759 21.0303 0 15.1862 0C9.342 0 4.60448 4.73759 4.60448 10.5817V12.401H4.15896C2.52528 12.401 1.26293 13.849 1.26293 15.5198V20.1609C1.22178 21.7803 2.50126 23.1264 4.12066 23.1676C4.13345 23.1679 4.14617 23.1681 4.15896 23.1683H6.90647C7.29563 23.15 7.59632 22.8196 7.57798 22.4305C7.57734 22.4165 7.57628 22.4025 7.57478 22.3886V13.292C7.57478 12.8465 7.31489 12.4009 6.90647 12.4009H6.08963V10.5816C6.08963 5.55777 10.1623 1.48508 15.1862 1.48508C20.21 1.48508 24.2827 5.55777 24.2827 10.5816V12.4009H23.4659C23.0574 12.4009 22.7975 12.8464 22.7975 13.292V22.3886C22.7561 22.7759 23.0365 23.1236 23.4239 23.165C23.4379 23.1665 23.4519 23.1676 23.4659 23.1682H24.3198L24.2455 23.2796C23.1314 24.7603 21.3832 25.6275 19.5302 25.6187C19.1245 23.6296 17.1831 22.3459 15.194 22.7516C13.4931 23.0985 12.2667 24.5882 12.253 26.3242C12.2733 28.3602 13.9297 30 15.9658 29.9999C16.9738 29.9835 17.9345 29.5699 18.6391 28.8489C19.1144 28.3621 19.4259 27.739 19.5302 27.0667C21.8507 27.0755 24.039 25.9881 25.4336 24.1335L26.1391 23.0939C27.7356 22.9825 28.7381 21.9801 28.7381 20.532V15.8909C28.7381 14.2946 27.5501 12.401 25.8421 12.401ZM6.08963 21.6831H4.15896C3.35947 21.6637 2.72711 20.9998 2.74659 20.2003C2.74694 20.1872 2.74744 20.174 2.74808 20.1608V15.5197C2.74808 14.6658 3.34212 13.8861 4.15896 13.8861H6.08963V21.6831ZM17.5624 27.8094C17.1509 28.2555 16.5728 28.511 15.9659 28.5148C14.7579 28.4957 13.7776 27.5317 13.7382 26.3242C13.7377 25.1144 14.718 24.1332 15.9279 24.1327C17.1377 24.1322 18.1189 25.1126 18.1194 26.3224C18.1194 26.323 18.1194 26.3237 18.1194 26.3242C18.1503 26.8755 17.9482 27.4144 17.5624 27.8094ZM27.253 20.5321C27.253 21.5346 26.2876 21.6831 25.8421 21.6831H24.2827V13.8861H25.8421C26.6589 13.8861 27.253 15.0371 27.253 15.8911V20.5321Z" fill="white"/>
</g>
</g>
</g>
</svg>
