<svg width="20" height="21" viewBox="0 0 20 21" fill="none" xmlns="http://www.w3.org/2000/svg">
<g id="mobile (1) 1">
<path id="Vector" d="M17.7382 12.881C16.1181 12.881 14.5614 12.502 13.1111 11.7539L12.692 11.5377L9.57051 15.1957C7.87315 14.0773 6.41819 12.6218 5.30096 10.9244L8.96248 7.80756L8.74566 7.38787C7.99813 5.93814 7.61913 4.38145 7.61913 2.76199V2.16675H1.66675V2.76199C1.66675 11.6237 8.87645 18.8334 17.7382 18.8334H18.3334V12.881H17.7382ZM2.86885 3.35722H6.44377C6.51875 4.79824 6.86578 6.18984 7.47846 7.50703L4.6784 9.89031C3.60767 7.93602 2.96244 5.71609 2.86885 3.35722ZM17.1429 17.6313C14.7817 17.5377 12.5595 16.8913 10.604 15.8183L12.9914 13.0205C14.3092 13.6344 15.7013 13.9814 17.1429 14.0564V17.6313Z" fill="#2F2F3D"/>
</g>
</svg>
