<svg width="20" height="20" viewBox="0 0 20 20" fill="none" xmlns="http://www.w3.org/2000/svg">
<g id="viber (3) 1" clip-path="url(#clip0_163_2819)">
<g id="XMLID_7_">
<path id="XMLID_8_" d="M17.1084 8.39269C17.1325 5.57293 14.7308 2.98796 11.7549 2.63051C11.6957 2.62349 11.6312 2.61281 11.5629 2.6015C11.4156 2.57709 11.2633 2.552 11.1095 2.552C10.4996 2.552 10.3366 2.98045 10.2936 3.23598C10.2519 3.48442 10.2917 3.69306 10.4118 3.85635C10.6138 4.13101 10.9692 4.17977 11.2546 4.21883C11.3383 4.23039 11.4172 4.24113 11.4833 4.25598C14.1571 4.85343 15.0574 5.79275 15.4974 8.4438C15.5082 8.50859 15.513 8.5884 15.5182 8.67306C15.5374 8.98995 15.5774 9.64927 16.2862 9.64927H16.2862C16.3452 9.64927 16.4087 9.64418 16.4747 9.63411C17.1347 9.5338 17.1141 8.93113 17.1041 8.64157C17.1013 8.56001 17.0987 8.48287 17.1056 8.43157C17.1074 8.41865 17.1084 8.40567 17.1084 8.39269Z" fill="#2F2F3D"/>
<path id="XMLID_9_" d="M10.9364 1.59553C11.0156 1.60124 11.0905 1.60671 11.153 1.61627C15.5436 2.29149 17.5628 4.37174 18.1223 8.79671C18.1318 8.87193 18.1333 8.96367 18.1349 9.06081C18.1405 9.40652 18.152 10.1257 18.9243 10.1406L18.9483 10.1409C19.1905 10.1409 19.3832 10.0678 19.521 9.9236C19.7615 9.67211 19.7447 9.29851 19.7312 8.99826C19.7279 8.9246 19.7247 8.85522 19.7255 8.79447C19.7813 4.26888 15.8639 0.165093 11.3424 0.0124845C11.3236 0.0118634 11.3057 0.0128571 11.2877 0.0154037C11.2788 0.0167081 11.2623 0.018323 11.2341 0.018323C11.189 0.018323 11.1336 0.0144099 11.0748 0.0104348C11.0036 0.00559006 10.923 0 10.8413 0C10.1212 0 9.98432 0.511801 9.9668 0.816894C9.92643 1.52199 10.6085 1.57161 10.9364 1.59553Z" fill="#2F2F3D"/>
<path id="XMLID_10_" d="M17.9105 14.5157C17.8171 14.4444 17.7206 14.3706 17.6302 14.2978C17.1509 13.912 16.6409 13.5565 16.1476 13.2125C16.0453 13.1412 15.9429 13.0699 15.8409 12.9983C15.2091 12.5545 14.6411 12.3389 14.1045 12.3389C13.3817 12.3389 12.7515 12.7383 12.2313 13.5258C12.0009 13.8749 11.7213 14.0447 11.3768 14.0447C11.1731 14.0447 10.9416 13.9865 10.6889 13.8718C8.64955 12.947 7.19334 11.5291 6.3606 9.65751C5.95806 8.75291 6.08856 8.16161 6.797 7.68037C7.1993 7.40733 7.94812 6.899 7.89508 5.92559C7.83501 4.82018 5.39601 1.49416 4.36837 1.11639C3.93328 0.956394 3.47613 0.954903 3.00719 1.11267C1.82582 1.50981 0.978058 2.20726 0.555325 3.1295C0.146816 4.02062 0.165263 5.06695 0.608679 6.1554C1.89054 9.30236 3.69278 12.0461 5.96551 14.3102C8.19011 16.5266 10.9243 18.3422 14.0922 19.7062C14.3777 19.8291 14.6772 19.8961 14.8959 19.945C14.9704 19.9617 15.0348 19.976 15.0817 19.9889C15.1074 19.9959 15.134 19.9997 15.1607 19.9999L15.1857 20.0001C15.1857 20.0001 15.1857 20.0001 15.1858 20.0001C16.6758 20.0001 18.4648 18.6386 19.0142 17.0864C19.4956 15.7273 18.6167 15.0555 17.9105 14.5157Z" fill="#2F2F3D"/>
<path id="XMLID_11_" d="M11.5953 5.19024C11.3402 5.1967 10.8094 5.20987 10.6231 5.75055C10.5359 6.00322 10.5464 6.2226 10.6541 6.4026C10.8123 6.6667 11.1153 6.74763 11.3909 6.79204C12.3903 6.95241 12.9036 7.50508 13.0063 8.53117C13.054 9.00962 13.3761 9.34372 13.7898 9.34372C13.8204 9.34372 13.8517 9.34192 13.8828 9.33813C14.3803 9.27894 14.6215 8.91341 14.5997 8.25179C14.6076 7.5613 14.2463 6.77738 13.6317 6.15297C13.015 5.52664 12.2715 5.17391 11.5953 5.19024Z" fill="#2F2F3D"/>
</g>
</g>
<defs>
<clipPath id="clip0_163_2819">
<rect width="20" height="20" fill="white"/>
</clipPath>
</defs>
</svg>
