<svg width="34" height="35" viewBox="0 0 34 35" fill="none" xmlns="http://www.w3.org/2000/svg">
<g id="up-right-arrow (8) 1" clip-path="url(#clip0_163_2953)">
<path id="Vector" d="M34 1.94799V23.9419C34 24.7415 33.3517 25.3899 32.552 25.3899C31.7523 25.3899 31.104 24.7415 31.104 23.9419V5.44401L2.47197 34.076C2.18915 34.3587 1.81867 34.5001 1.44805 34.5001C1.07744 34.5001 0.706961 34.3587 0.424137 34.076C-0.141379 33.5105 -0.141379 32.5936 0.424137 32.0281L29.0563 3.39598H10.5581C9.75846 3.39598 9.11014 2.74765 9.11014 1.94799C9.11014 1.14832 9.75846 0.5 10.5581 0.5H32.552C33.3517 0.499934 34 1.14832 34 1.94799Z" fill="#2F2F3D" fill-opacity="0.5"/>
</g>
<defs>
<clipPath id="clip0_163_2953">
<rect width="34" height="34" fill="white" transform="translate(0 0.5)"/>
</clipPath>
</defs>
</svg>
