<svg width="28" height="29" viewBox="0 0 28 29" fill="none" xmlns="http://www.w3.org/2000/svg">
<path d="M14 1.88541C11.7355 1.88439 9.51108 2.48286 7.5528 3.62001C5.59451 4.75715 3.97215 6.39243 2.85059 8.35968C1.72902 10.3269 1.14822 12.556 1.1672 14.8204C1.18618 17.0849 1.80428 19.3039 2.95867 21.2521L1.23783 25.9864C1.17372 26.1626 1.153 26.3516 1.17744 26.5375C1.20188 26.7234 1.27076 26.9006 1.37825 27.0543C1.48573 27.2079 1.62865 27.3333 1.79491 27.42C1.96116 27.5066 2.14585 27.5519 2.33333 27.5521C2.46936 27.5517 2.60432 27.5281 2.73233 27.4821L7.46667 25.7601C9.16577 26.7666 11.0743 27.3675 13.0436 27.5158C15.0128 27.6642 16.9898 27.356 18.8205 26.6154C20.6513 25.8747 22.2863 24.7216 23.5985 23.2456C24.9107 21.7697 25.8645 20.0109 26.3858 18.1061C26.9071 16.2012 26.9817 14.2018 26.6038 12.2634C26.226 10.325 25.4059 8.49997 24.2074 6.93037C23.0088 5.36076 21.4642 4.08894 19.6938 3.21391C17.9234 2.33887 15.9749 1.88424 14 1.88541Z" fill="#CFD2DD"/>
</svg>
