<svg width="50" height="51" viewBox="0 0 50 51" fill="none" xmlns="http://www.w3.org/2000/svg">
<g clip-path="url(#clip0_163_2915)">
<path d="M0 25.7188C0 11.9113 11.19 0.71875 25 0.71875C38.805 0.71875 50 11.9113 50 25.7188C50 39.5262 38.805 50.7188 25 50.7188C11.19 50.7188 0 39.5262 0 25.7188Z" fill="#FC3F1D"/>
<path d="M28.0079 15.8431H25.9024C22.0424 15.8431 20.0121 17.7982 20.0121 20.6807C20.0121 23.9391 21.4158 25.4658 24.2983 27.4232L26.6794 29.0273L19.8367 39.2516H14.7234L20.8643 30.1051C17.3324 27.5736 15.35 25.1149 15.35 20.9564C15.35 15.7428 18.9845 12.1836 25.8774 12.1836H32.7201V39.2266H28.0079V15.8431Z" fill="white"/>
</g>
<defs>
<clipPath id="clip0_163_2915">
<rect width="50" height="50" fill="white" transform="translate(0 0.71875)"/>
</clipPath>
</defs>
</svg>
