<svg width="20" height="20" viewBox="0 0 20 20" fill="none" xmlns="http://www.w3.org/2000/svg">
<g id="mobile (1) 1">
<path id="Vector" d="M17.7382 12.381C16.1181 12.381 14.5614 12.002 13.1111 11.2539L12.692 11.0377L9.57051 14.6957C7.87315 13.5773 6.41819 12.1218 5.30096 10.4244L8.96248 7.30756L8.74566 6.88787C7.99813 5.43814 7.61913 3.88145 7.61913 2.26199V1.66675H1.66675V2.26199C1.66675 11.1237 8.87645 18.3334 17.7382 18.3334H18.3334V12.381H17.7382ZM2.86885 2.85722H6.44377C6.51875 4.29824 6.86578 5.68984 7.47846 7.00703L4.6784 9.39031C3.60767 7.43602 2.96244 5.21609 2.86885 2.85722ZM17.1429 17.1313C14.7817 17.0377 12.5595 16.3913 10.604 15.3183L12.9914 12.5205C14.3092 13.1344 15.7013 13.4814 17.1429 13.5564V17.1313Z" fill="white"/>
</g>
</svg>
